# xmcd
#
# Track frame offsets:
#	150
#	17031
#	31155
#	46766
#	66125
#	87346
#	104636
#	121970
#	135346
#	151038
#	168726
#
# Disc length: 2486 seconds
#
# Revision: 0
# Processed by: cddbd v1.5.2PL0 Copyright (c) Steve Scherf et al.
# Submitted via: EasyCDDAExtractor 4.6.9.1
#
DISCID=8409b40b
DTITLE=Martina McBride - Waking Up Laughing
DYEAR=2007
DGENRE=Country
TTITLE0=If I Had Your Name
TTITLE1=Cry Cry (Till The Sun Shines)
TTITLE2=Tryin' To Find A Reason
TTITLE3=For These Times
TTITLE4=Anyway (Album and Digital Single Version)
TTITLE5=How I Feel
TTITLE6=I'll Still Be Me
TTITLE7=Beautiful Again
TTITLE8=Everybody Does
TTITLE9=House Of A Thousand Dreams
TTITLE10=Love Land
EXTD=
EXTT0=
EXTT1=
EXTT2=
EXTT3=
EXTT4=
EXTT5=
EXTT6=
EXTT7=
EXTT8=
EXTT9=
EXTT10=
PLAYORDER=
